<mxfile host="Electron" modified="2023-10-30T16:18:03.717Z" agent="Mozilla/5.0 (Windows NT 10.0; Win64; x64) AppleWebKit/537.36 (KHTML, like Gecko) draw.io/21.6.8 Chrome/114.0.5735.289 Electron/25.5.0 Safari/537.36" etag="ipyanfdefppp91eavEeW" version="21.6.8" type="device">
  <diagram name="Page-1" id="P7CtUTm06KZDMbXTv__Z">
    <mxGraphModel dx="757" dy="571" grid="1" gridSize="10" guides="1" tooltips="1" connect="1" arrows="1" fold="1" page="1" pageScale="1" pageWidth="850" pageHeight="1100" math="0" shadow="0">
      <root>
        <mxCell id="0" />
        <mxCell id="1" parent="0" />
        <mxCell id="8AzBk0sxqxmLiuohR-n9-1" value="" style="rounded=0;whiteSpace=wrap;html=1;shadow=1;fontFamily=Computer Modern;" vertex="1" parent="1">
          <mxGeometry x="400" y="240" width="138" height="163" as="geometry" />
        </mxCell>
        <mxCell id="8AzBk0sxqxmLiuohR-n9-2" value="" style="rounded=0;whiteSpace=wrap;html=1;shadow=1;fontFamily=Computer Modern;" vertex="1" parent="1">
          <mxGeometry x="190" y="210" width="190" height="220" as="geometry" />
        </mxCell>
        <mxCell id="8AzBk0sxqxmLiuohR-n9-3" value="" style="rounded=0;whiteSpace=wrap;html=1;fontFamily=Computer Modern;" vertex="1" parent="1">
          <mxGeometry x="261" y="270" width="100" height="20" as="geometry" />
        </mxCell>
        <mxCell id="8AzBk0sxqxmLiuohR-n9-4" value="" style="endArrow=none;html=1;rounded=0;fontFamily=Computer Modern;" edge="1" parent="1">
          <mxGeometry width="50" height="50" relative="1" as="geometry">
            <mxPoint x="261" y="330" as="sourcePoint" />
            <mxPoint x="301" y="330" as="targetPoint" />
            <Array as="points">
              <mxPoint x="281" y="330" />
            </Array>
          </mxGeometry>
        </mxCell>
        <mxCell id="8AzBk0sxqxmLiuohR-n9-5" value="" style="endArrow=none;html=1;rounded=0;fontFamily=Computer Modern;" edge="1" parent="1">
          <mxGeometry width="50" height="50" relative="1" as="geometry">
            <mxPoint x="261" y="330" as="sourcePoint" />
            <mxPoint x="291" y="390" as="targetPoint" />
          </mxGeometry>
        </mxCell>
        <mxCell id="8AzBk0sxqxmLiuohR-n9-6" value="" style="endArrow=none;html=1;rounded=0;fontFamily=Computer Modern;" edge="1" parent="1">
          <mxGeometry width="50" height="50" relative="1" as="geometry">
            <mxPoint x="301" y="330" as="sourcePoint" />
            <mxPoint x="311" y="350" as="targetPoint" />
          </mxGeometry>
        </mxCell>
        <mxCell id="8AzBk0sxqxmLiuohR-n9-7" value="" style="endArrow=none;html=1;rounded=0;fontFamily=Computer Modern;" edge="1" parent="1">
          <mxGeometry width="50" height="50" relative="1" as="geometry">
            <mxPoint x="321" y="330" as="sourcePoint" />
            <mxPoint x="311" y="350" as="targetPoint" />
          </mxGeometry>
        </mxCell>
        <mxCell id="8AzBk0sxqxmLiuohR-n9-8" value="" style="endArrow=none;html=1;rounded=0;fontFamily=Computer Modern;" edge="1" parent="1">
          <mxGeometry width="50" height="50" relative="1" as="geometry">
            <mxPoint x="321" y="330" as="sourcePoint" />
            <mxPoint x="361" y="330" as="targetPoint" />
          </mxGeometry>
        </mxCell>
        <mxCell id="8AzBk0sxqxmLiuohR-n9-9" value="" style="endArrow=none;html=1;rounded=0;fontFamily=Computer Modern;" edge="1" parent="1">
          <mxGeometry width="50" height="50" relative="1" as="geometry">
            <mxPoint x="361" y="330" as="sourcePoint" />
            <mxPoint x="331" y="390" as="targetPoint" />
          </mxGeometry>
        </mxCell>
        <mxCell id="8AzBk0sxqxmLiuohR-n9-10" value="" style="endArrow=none;html=1;rounded=0;fontFamily=Computer Modern;" edge="1" parent="1">
          <mxGeometry width="50" height="50" relative="1" as="geometry">
            <mxPoint x="291" y="390" as="sourcePoint" />
            <mxPoint x="331" y="390" as="targetPoint" />
          </mxGeometry>
        </mxCell>
        <mxCell id="8AzBk0sxqxmLiuohR-n9-11" value="Arithmetic&lt;br&gt;Logic Unit" style="text;html=1;strokeColor=none;fillColor=none;align=center;verticalAlign=middle;whiteSpace=wrap;rounded=0;fontFamily=Computer Modern;" vertex="1" parent="1">
          <mxGeometry x="276.25" y="345" width="69.5" height="34" as="geometry" />
        </mxCell>
        <mxCell id="8AzBk0sxqxmLiuohR-n9-12" value="" style="endArrow=open;endFill=1;endSize=12;html=1;rounded=0;entryX=0;entryY=0.5;entryDx=0;entryDy=0;fontFamily=Computer Modern;" edge="1" parent="1" target="8AzBk0sxqxmLiuohR-n9-25">
          <mxGeometry width="160" relative="1" as="geometry">
            <mxPoint x="310.83" y="390" as="sourcePoint" />
            <mxPoint x="310.83" y="430" as="targetPoint" />
            <Array as="points">
              <mxPoint x="311" y="410" />
              <mxPoint x="231" y="410" />
              <mxPoint x="230" y="240" />
            </Array>
          </mxGeometry>
        </mxCell>
        <mxCell id="8AzBk0sxqxmLiuohR-n9-13" value="CPU" style="shape=umlFrame;whiteSpace=wrap;html=1;pointerEvents=0;fontFamily=Computer Modern;width=40;height=30;" vertex="1" parent="1">
          <mxGeometry x="190" y="210" width="190" height="220" as="geometry" />
        </mxCell>
        <mxCell id="8AzBk0sxqxmLiuohR-n9-14" value="" style="rounded=0;whiteSpace=wrap;html=1;fontFamily=Computer Modern;" vertex="1" parent="1">
          <mxGeometry x="421" y="350" width="100" height="20" as="geometry" />
        </mxCell>
        <mxCell id="8AzBk0sxqxmLiuohR-n9-15" value="" style="rounded=0;whiteSpace=wrap;html=1;fontFamily=Computer Modern;" vertex="1" parent="1">
          <mxGeometry x="421" y="290" width="100" height="20" as="geometry" />
        </mxCell>
        <mxCell id="8AzBk0sxqxmLiuohR-n9-16" value="" style="endArrow=none;dashed=1;html=1;dashPattern=1 3;strokeWidth=2;rounded=0;fontFamily=Computer Modern;" edge="1" parent="1">
          <mxGeometry width="50" height="50" relative="1" as="geometry">
            <mxPoint x="446" y="380" as="sourcePoint" />
            <mxPoint x="496" y="380" as="targetPoint" />
          </mxGeometry>
        </mxCell>
        <mxCell id="8AzBk0sxqxmLiuohR-n9-17" value="" style="endArrow=none;dashed=1;html=1;dashPattern=1 3;strokeWidth=2;rounded=0;fontFamily=Computer Modern;" edge="1" parent="1">
          <mxGeometry width="50" height="50" relative="1" as="geometry">
            <mxPoint x="446" y="280" as="sourcePoint" />
            <mxPoint x="496" y="280" as="targetPoint" />
          </mxGeometry>
        </mxCell>
        <mxCell id="8AzBk0sxqxmLiuohR-n9-18" value="" style="rounded=0;whiteSpace=wrap;html=1;fontFamily=Computer Modern;" vertex="1" parent="1">
          <mxGeometry x="421" y="310" width="100" height="20" as="geometry" />
        </mxCell>
        <mxCell id="8AzBk0sxqxmLiuohR-n9-19" value="" style="rounded=0;whiteSpace=wrap;html=1;fontFamily=Computer Modern;" vertex="1" parent="1">
          <mxGeometry x="421" y="330" width="100" height="20" as="geometry" />
        </mxCell>
        <mxCell id="8AzBk0sxqxmLiuohR-n9-20" value="Memory" style="shape=umlFrame;whiteSpace=wrap;html=1;pointerEvents=0;fontFamily=Computer Modern;" vertex="1" parent="1">
          <mxGeometry x="400" y="240" width="138" height="163" as="geometry" />
        </mxCell>
        <mxCell id="8AzBk0sxqxmLiuohR-n9-23" value="" style="endArrow=none;dashed=1;html=1;dashPattern=1 3;strokeWidth=2;rounded=0;fontFamily=Computer Modern;" edge="1" parent="1">
          <mxGeometry width="50" height="50" relative="1" as="geometry">
            <mxPoint x="286" y="297" as="sourcePoint" />
            <mxPoint x="336" y="297" as="targetPoint" />
          </mxGeometry>
        </mxCell>
        <mxCell id="8AzBk0sxqxmLiuohR-n9-24" value="" style="rounded=0;whiteSpace=wrap;html=1;fontFamily=Computer Modern;" vertex="1" parent="1">
          <mxGeometry x="261" y="250" width="100" height="20" as="geometry" />
        </mxCell>
        <mxCell id="8AzBk0sxqxmLiuohR-n9-25" value="" style="rounded=0;whiteSpace=wrap;html=1;fontFamily=Computer Modern;" vertex="1" parent="1">
          <mxGeometry x="261" y="230" width="100" height="20" as="geometry" />
        </mxCell>
        <mxCell id="8AzBk0sxqxmLiuohR-n9-26" value="" style="endArrow=none;dashed=1;html=1;dashPattern=1 3;strokeWidth=2;rounded=0;fontFamily=Computer Modern;" edge="1" parent="1">
          <mxGeometry width="50" height="50" relative="1" as="geometry">
            <mxPoint x="284" y="224" as="sourcePoint" />
            <mxPoint x="334" y="224" as="targetPoint" />
          </mxGeometry>
        </mxCell>
        <mxCell id="8AzBk0sxqxmLiuohR-n9-27" value="" style="ellipse;whiteSpace=wrap;html=1;aspect=fixed;strokeColor=none;fillColor=#0D0D0D;fontFamily=Computer Modern;" vertex="1" parent="1">
          <mxGeometry x="278" y="258" width="6" height="6" as="geometry" />
        </mxCell>
        <mxCell id="8AzBk0sxqxmLiuohR-n9-28" value="" style="endArrow=open;endFill=1;endSize=12;html=1;rounded=0;exitX=0.5;exitY=1;exitDx=0;exitDy=0;fontFamily=Computer Modern;" edge="1" parent="1" source="8AzBk0sxqxmLiuohR-n9-27">
          <mxGeometry width="160" relative="1" as="geometry">
            <mxPoint x="281" y="290" as="sourcePoint" />
            <mxPoint x="281" y="330" as="targetPoint" />
          </mxGeometry>
        </mxCell>
        <mxCell id="8AzBk0sxqxmLiuohR-n9-30" value="" style="ellipse;whiteSpace=wrap;html=1;aspect=fixed;strokeColor=none;fillColor=#0D0D0D;fontFamily=Computer Modern;" vertex="1" parent="1">
          <mxGeometry x="340" y="276" width="6" height="6" as="geometry" />
        </mxCell>
        <mxCell id="8AzBk0sxqxmLiuohR-n9-31" value="" style="endArrow=open;endFill=1;endSize=12;html=1;rounded=0;exitX=0.5;exitY=1;exitDx=0;exitDy=0;fontFamily=Computer Modern;" edge="1" parent="1" source="8AzBk0sxqxmLiuohR-n9-30">
          <mxGeometry width="160" relative="1" as="geometry">
            <mxPoint x="343" y="290" as="sourcePoint" />
            <mxPoint x="343" y="330" as="targetPoint" />
          </mxGeometry>
        </mxCell>
      </root>
    </mxGraphModel>
  </diagram>
</mxfile>
